<?xml version="1.0" encoding="UTF-8"?>
<svg id="Layer_2" data-name="Layer 2" xmlns="http://www.w3.org/2000/svg" xmlns:xlink="http://www.w3.org/1999/xlink" viewBox="0 0 310.73 337.65">
  <defs>
    <style>
      .cls-1 {
        fill: url(#linear-gradient-2);
      }

      .cls-2 {
        fill: url(#linear-gradient-10);
      }

      .cls-3 {
        fill: url(#linear-gradient-12);
      }

      .cls-4 {
        fill: url(#linear-gradient-4);
      }

      .cls-5 {
        fill: url(#linear-gradient-3);
      }

      .cls-6 {
        fill: url(#linear-gradient-5);
      }

      .cls-7 {
        fill: #259a43;
      }

      .cls-8 {
        fill: #ef3170;
      }

      .cls-9 {
        fill: url(#linear-gradient-8);
      }

      .cls-10 {
        fill: url(#linear-gradient-7);
      }

      .cls-11 {
        fill: url(#linear-gradient-9);
      }

      .cls-12 {
        fill: url(#linear-gradient-11);
      }

      .cls-13 {
        fill: url(#linear-gradient-6);
      }

      .cls-14 {
        fill: #f14469;
      }

      .cls-15 {
        fill: url(#linear-gradient);
      }
    </style>
    <linearGradient id="linear-gradient" x1="163.73" y1="65.46" x2="163.73" y2="189.36" gradientUnits="userSpaceOnUse">
      <stop offset="0" stop-color="#006837"/>
      <stop offset=".23" stop-color="#39b54a"/>
      <stop offset=".6" stop-color="#8cc63f"/>
      <stop offset="1" stop-color="#d9e021"/>
    </linearGradient>
    <linearGradient id="linear-gradient-2" x1="143.54" y1="48.22" x2="143.54" y2="205.16" gradientUnits="userSpaceOnUse">
      <stop offset="0" stop-color="#ed1e79"/>
      <stop offset="1" stop-color="#fbb03b"/>
    </linearGradient>
    <linearGradient id="linear-gradient-3" x1="163.06" y1="84.28" x2="163.06" y2="194.09" gradientUnits="userSpaceOnUse">
      <stop offset="0" stop-color="#39b54a"/>
      <stop offset="1" stop-color="#8cc63f"/>
    </linearGradient>
    <linearGradient id="linear-gradient-4" x1="163.56" y1="48.22" x2="163.56" y2="205.16" xlink:href="#linear-gradient-2"/>
    <linearGradient id="linear-gradient-5" x1="107.45" y1="133" x2="107.45" y2="212.75" xlink:href="#linear-gradient-2"/>
    <linearGradient id="linear-gradient-6" x1="128.2" y1="65.46" x2="128.2" y2="189.36" xlink:href="#linear-gradient"/>
    <linearGradient id="linear-gradient-7" x1="108.81" y1="102.31" x2="108.81" y2="179.56" xlink:href="#linear-gradient-2"/>
    <linearGradient id="linear-gradient-8" x1="71.93" y1="173.76" x2="142.5" y2="173.76" xlink:href="#linear-gradient"/>
    <linearGradient id="linear-gradient-9" x1="212.43" y1="133" x2="212.43" y2="212.75" xlink:href="#linear-gradient-2"/>
    <linearGradient id="linear-gradient-10" x1="191.67" y1="65.46" x2="191.67" y2="189.36" xlink:href="#linear-gradient"/>
    <linearGradient id="linear-gradient-11" x1="211.07" y1="102.31" x2="211.07" y2="179.56" xlink:href="#linear-gradient-2"/>
    <linearGradient id="linear-gradient-12" x1="177.38" y1="173.76" x2="247.94" y2="173.76" xlink:href="#linear-gradient"/>
  </defs>
  <g id="Layer_1-2" data-name="Layer 1">
    <g>
      <g>
        <g>
          <path class="cls-15" d="M142.64,118.9c-9.88,16.84-1.88,33.17,11.91,43.17,1.15-1.37,2.3-2.74,3.56-4.25-3.31-3.85-7.18-7.09-9-12.31,6.2,0,14.65.05,20.41-.05l.02-2.18h-21.43c-1.92-4.71-2.24-9.33-.96-14.35h22.85v-1.95s-13.19,0-18.49,0c-1.2,0-2.39,0-4.08,0,.58-1.9,1.11-2.97,1.77-4.18,2.62-4.5,5.83-8.42,9.46-11.88,5.55-5.29,11.84-9.8,17.6-14.89,6.69-5.92,12-12.81,12.86-22.13.4-4.3-.26-8.47-2.99-12.74-.12,1.1-.2,1.56-.21,2.01-.16,8.35-2.96,15.78-8.78,21.67-4.91,4.97-10.42,9.37-15.8,13.86-7.11,5.94-13.92,12.08-18.69,20.21Z"/>
          <circle class="cls-8" cx="160.28" cy="68.64" r="10.4"/>
          <path class="cls-1" d="M143.73,96.12c2.29,2.16,4.76,4.12,7.28,6.26,1.78-1.69,3.6-3.29,5.42-4.84-2.92-2.5-5.62-4.78-8.25-7.11-4.52-4-8.25-8.56-10.2-14.39-2.34-7-.75-13.63,1.35-20.67-.74.54-1.52,1.04-2.2,1.64-5.77,5.08-7.99,13.86-5.35,21.38,2.43,6.95,6.66,12.73,11.97,17.74Z"/>
          <path class="cls-5" d="M166.05,166c-.96.81-1.94,1.64-2.91,2.46,1.15,1.19,1.95,2.27,2.63,3.27h-6.64s0,2.29,0,2.29h8.34c2.52,3.67,3.94,7.1,5.45,11.21-1.81,0-3.41,0-4.52,0-4.8,0-17.16,0-17.16,0v2.08h22.3c.54,1.37.74,2.44.89,3.97,1.92-7.64-2.78-20.48-8.38-25.27Z"/>
          <path class="cls-4" d="M166.47,178.84h-15.14c3.41-6.68,12.4-13.45,17.51-18.11,11-10.02,15.92-24.89,9.82-38.37-2.49-5.5-6.03-10.22-10.95-14.02-1.68,1.39-3.31,2.79-4.9,4.23,1.85,2.05,3.54,3.93,5.42,6.02h-12.72v2.16h14.29c.45.73.89,1.45,1.31,2.18,1.2,2.08,2.25,4.21,2.92,6.53.51,1.78.79,3.66.73,5.74-1.34,0-2.37,0-3.4,0-5.95-.02-14.41-.06-20.95-.06-.48,0-.94,0-1.4,0v2.05h25.9c.08,2.42-.48,4.48-1.36,6.39-.96,2.09-3.11,5.56-4.8,7.59h-11.52v2.39h8.87c-1.13,1.2-2.24,2.35-3.34,3.49-2.23,2.32-4.42,4.62-6.7,7.27-.71.82-1.36,1.62-1.97,2.43-2.19,2.88-3.91,5.85-5.96,10.15-2.07,4.33-2.96,9.76-1.84,14.79.86-4.39,1.97-7.66,3.86-10.87h16.26c.02-.37.04-1.6.05-1.97Z"/>
        </g>
        <g>
          <g>
            <path class="cls-6" d="M142.97,178.95c-18.77,12.32-45.25,13.38-71.03,2,31.59,28.13,69.86,11.83,69.86,11.83-.37-3.69-.31-8.74,1.17-13.83Z"/>
            <g>
              <path class="cls-13" d="M140.87,99.06c-6.26-5.91-10.52-12.23-13.01-19.34-.94-2.68-1.36-5.49-1.31-8.29-15.41,11.51-21.38,26.61-21.38,42.72,0,27.36,26.66,48,45.08,51.86.31-.44.64-.88.97-1.31-16.97-12.81-21.76-31.48-12.16-47.84,1.75-2.98,5.27-7.96,8.87-11.7-.56-.47-1.12-.94-1.67-1.4-1.8-1.5-3.65-3.04-5.4-4.69Z"/>
              <path class="cls-10" d="M101.83,122.19c-7.82-3.66-18.36-6.98-28.12-5.4,0,19.99,7.36,32.28,20.67,42.65,5.34,4.16,26.26,12.51,49.54,9-9.05-3.09-18.43-9.07-25.97-16.7-6.41-6.47-13.84-16.49-16.11-29.54Z"/>
              <path class="cls-9" d="M132.51,173.31c-17.39,0-32.87-5.5-39.43-9.85-5.51,4.6-13.33,9.25-21.14,10.73,15.66,13.28,55.2,13.48,70.56-1.51-3.27.41-6.62.62-9.99.62h0Z"/>
            </g>
          </g>
          <g>
            <path class="cls-11" d="M176.91,178.95c18.77,12.32,45.25,13.38,71.03,2-31.59,28.13-69.86,11.83-69.86,11.83.37-3.69.31-8.74-1.17-13.83Z"/>
            <g>
              <path class="cls-2" d="M179.01,99.06c6.26-5.91,10.52-12.23,13.01-19.34.94-2.68,1.36-5.49,1.31-8.29,15.41,11.51,21.38,26.61,21.38,42.72,0,27.36-26.66,48-45.08,51.86-.31-.44-.64-.88-.97-1.31,16.97-12.81,21.76-31.48,12.16-47.84-1.75-2.98-5.27-7.96-8.87-11.7.56-.47,1.12-.94,1.67-1.4,1.8-1.5,3.65-3.04,5.4-4.69Z"/>
              <path class="cls-12" d="M218.05,122.19c7.82-3.66,18.36-6.98,28.12-5.4,0,19.99-7.36,32.28-20.67,42.65-5.34,4.16-26.26,12.51-49.54,9,9.05-3.09,18.43-9.07,25.97-16.7,6.41-6.47,13.84-16.49,16.11-29.54Z"/>
              <path class="cls-3" d="M187.37,173.31c17.39,0,32.87-5.5,39.43-9.85,5.51,4.6,13.33,9.25,21.14,10.73-15.66,13.28-55.2,13.48-70.56-1.51,3.27.41,6.62.62,9.99.62h0Z"/>
            </g>
          </g>
        </g>
      </g>
      <g>
        <path class="cls-14" d="M43.1,243.05c3.71-.71,6.99-.13,9.8,1.71,2.81,1.84,4.49,4.52,5.08,8.01.59,3.49-.11,6.58-2.05,9.27-1.94,2.7-4.68,4.36-8.24,5.04-3.68.7-5.52,1.07-9.18,1.83-1.98-9.59-2.98-14.38-4.96-23.96,3.82-.79,5.73-1.17,9.56-1.9ZM46.62,262.27c2.1-.4,3.69-1.39,4.78-2.99,1.09-1.6,1.45-3.45,1.08-5.56-.38-2.11-1.36-3.71-2.96-4.79-1.6-1.08-3.48-1.42-5.63-1.01-1.56.3-2.34.45-3.9.76,1.13,5.73,1.7,8.6,2.83,14.34,1.52-.3,2.29-.45,3.81-.74Z"/>
        <path class="cls-14" d="M68.79,258.46c3.92-.6,5.89-.88,9.82-1.42.27,1.95.4,2.93.66,4.88-6.02.82-9.03,1.27-15.03,2.24-1.56-9.66-2.35-14.49-3.91-24.16,6.09-.99,9.14-1.44,15.25-2.28.27,1.94.4,2.91.66,4.85-3.87.53-5.8.81-9.66,1.4.29,1.91.44,2.86.73,4.77,3.46-.53,5.19-.78,8.65-1.26.26,1.9.39,2.85.66,4.74-3.44.47-5.15.72-8.58,1.25.3,1.99.46,2.99.76,4.98Z"/>
        <path class="cls-14" d="M88.47,255.79c3.94-.47,5.91-.69,9.85-1.09.2,1.96.3,2.94.5,4.9-6.04.62-9.06.97-15.08,1.74-1.25-9.71-1.87-14.56-3.11-24.27,6.11-.78,9.17-1.14,15.3-1.77.2,1.95.3,2.92.5,4.87-3.88.4-5.82.62-9.69,1.08.23,1.92.34,2.87.57,4.79,3.47-.41,5.21-.61,8.68-.97.2,1.91.3,2.86.5,4.76-3.45.36-5.17.55-8.61.96.24,2,.36,3,.6,5Z"/>
        <path class="cls-14" d="M110.81,233.94c2.58-.2,4.8.44,6.63,1.91,1.83,1.47,2.82,3.42,2.97,5.83.16,2.41-.57,4.46-2.15,6.17-1.58,1.71-3.62,2.66-6.13,2.85-1.66.13-2.49.2-4.16.34.26,3.05.39,4.58.66,7.63-2.13.18-3.2.28-5.33.48-.93-9.74-1.39-14.62-2.31-24.36,3.93-.37,5.89-.54,9.82-.85ZM111.54,245.84c1.07-.09,1.91-.48,2.52-1.18.61-.7.88-1.56.8-2.58-.08-1.02-.47-1.84-1.18-2.45-.71-.61-1.62-.88-2.7-.79-1.61.13-2.41.19-4.02.33.24,2.8.36,4.2.6,7,1.59-.14,2.39-.2,3.98-.33Z"/>
        <path class="cls-14" d="M138.66,256.85c-2.03-3.27-3.06-4.9-5.14-8.16-1.38.06-2.07.09-3.46.16.16,3.34.25,5.01.41,8.35-2.14.11-3.2.16-5.34.29-.57-9.77-.85-14.66-1.42-24.43,4.14-.24,6.21-.34,10.35-.52,1.68-.07,3.22.22,4.61.86,1.39.64,2.48,1.57,3.28,2.78.8,1.21,1.22,2.6,1.26,4.16.04,1.56-.33,2.98-1.1,4.26-.78,1.28-1.85,2.27-3.24,2.97,2.34,3.63,3.5,5.45,5.77,9.09-2.39.06-3.59.1-5.98.18ZM129.51,237.64c.12,2.53.19,3.79.31,6.32,1.74-.09,2.61-.13,4.35-.2,1.1-.05,1.97-.37,2.61-.98.64-.61.94-1.38.91-2.31-.02-.63-.19-1.18-.5-1.64-.31-.47-.74-.82-1.31-1.07-.57-.25-1.23-.35-1.98-.32-1.76.07-2.63.11-4.39.2Z"/>
        <path class="cls-14" d="M164.51,256.49c-.68-1.86-1.02-2.8-1.7-4.66-3.96-.02-5.93-.01-9.89.03-.66,1.87-.99,2.8-1.63,4.67-2.25.03-3.38.05-5.63.11,3.62-9.88,5.51-14.8,9.45-24.62,2.09-.02,3.14-.02,5.23-.02,4.14,9.79,6.12,14.7,9.94,24.56-2.31-.04-3.46-.05-5.77-.07ZM157.8,238.47c-1.31,3.5-1.95,5.25-3.22,8.76,2.61-.02,3.92-.03,6.54-.02-1.31-3.5-1.97-5.25-3.32-8.74Z"/>
        <path class="cls-14" d="M190.2,232.74c2.17.11,3.25.16,5.41.29-.56,9.77-.84,14.66-1.4,24.43-1.77-.1-2.66-.15-4.43-.24-4.15-6.33-6.28-9.47-10.66-15.72-.19,6.11-.29,9.16-.48,15.27-2.1-.07-3.14-.09-5.24-.14.22-9.79.33-14.68.55-24.46,2.01.05,3.01.07,5.01.13,4.31,6.11,6.41,9.18,10.51,15.35.29-5.96.43-8.95.72-14.91Z"/>
        <path class="cls-14" d="M199.83,257.8c.65-9.77.98-14.65,1.63-24.42,2.22.15,3.33.23,5.55.4-.74,9.76-1.11,14.64-1.85,24.4-2.13-.16-3.2-.24-5.34-.38Z"/>
        <path class="cls-7" d="M219.16,259.41c.97-9.74,1.45-14.61,2.42-24.35,2.22.22,3.33.34,5.54.58-1.06,9.73-1.58,14.6-2.64,24.33-2.13-.23-3.19-.34-5.32-.55Z"/>
        <path class="cls-7" d="M260.03,264.9c-2.14-.36-3.22-.54-5.36-.88.05-6.46.06-9.7.06-16.17-3.97,5.83-5.92,8.77-9.75,14.66-.52-.07-.77-.11-1.29-.18-2.03-6.73-3.08-10.09-5.27-16.8-1.81,6.21-2.7,9.32-4.45,15.54-2.17-.27-3.25-.4-5.42-.65,2.66-9.55,4.02-14.31,6.81-23.83,2.21.27,3.32.41,5.53.7,1.97,6.31,2.92,9.47,4.76,15.79,3.54-5.56,5.34-8.32,9.01-13.83,2.21.34,3.31.51,5.51.87,0,9.92-.02,14.88-.14,24.78Z"/>
        <path class="cls-7" d="M272.07,267.56c-2.82-.54-4.96-1.69-6.42-3.48-1.47-1.79-1.99-3.97-1.54-6.54,2.16.38,3.23.57,5.39.96-.11.57-.09,1.1.05,1.59.14.49.38.9.71,1.25.33.35.73.63,1.2.86.46.23.96.39,1.5.5,1.07.2,2.05.13,2.93-.22.88-.35,1.41-.96,1.58-1.83.07-.37.04-.71-.09-1.03-.13-.32-.3-.59-.52-.81-.21-.22-.55-.47-1.02-.75-.47-.28-.87-.5-1.21-.66-.34-.16-.85-.38-1.52-.68-.54-.24-.94-.43-1.21-.55-.27-.12-.67-.31-1.19-.58-.52-.26-.92-.48-1.2-.66-.27-.18-.62-.43-1.05-.74-.43-.31-.76-.61-.98-.89-.22-.28-.46-.61-.72-1.02-.26-.4-.44-.8-.54-1.21-.1-.41-.16-.87-.2-1.38-.03-.51,0-1.05.1-1.6.4-2.3,1.53-3.93,3.39-4.9,1.86-.97,4.22-1.19,7.07-.65,2.87.55,4.97,1.68,6.29,3.37,1.32,1.69,1.72,3.74,1.23,6.14-2.14-.44-3.21-.65-5.34-1.08.19-.98-.02-1.8-.65-2.46-.63-.66-1.48-1.09-2.56-1.29-.96-.18-1.82-.14-2.6.12-.78.26-1.23.76-1.37,1.49-.06.34-.03.66.1.96.13.3.3.55.5.77.21.22.54.46,1.01.72.47.27.86.47,1.19.62.33.15.83.36,1.48.66.72.32,1.26.58,1.62.76.36.18.87.46,1.53.84.66.38,1.16.72,1.51,1.03.34.31.74.7,1.18,1.18.44.48.75.97.93,1.48.18.5.3,1.09.37,1.75.07.67.03,1.37-.12,2.1-.35,1.67-1.07,3-2.17,4.01-1.1,1.01-2.38,1.66-3.84,1.93-1.46.28-3.06.25-4.79-.08Z"/>
      </g>
      <path d="M159.65,337.65l-1.42-.67c-9.14-4.3-26.41-12.93-39.41-22.3-10.87-7.83-20.92-16.67-29.87-26.27-2.77-2.96-5.49-6.08-8.11-9.25l5.15-4.25c2.53,3.07,5.16,6.07,7.83,8.94,8.66,9.28,18.38,17.83,28.89,25.41,8.89,6.41,22.29,14.02,36.93,21,14.64-6.98,28.04-14.59,36.93-21,10.52-7.58,20.24-16.12,28.89-25.4,1.62-1.74,3.23-3.52,4.77-5.31l5.05,4.37c-1.6,1.85-3.26,3.7-4.94,5.5-8.95,9.6-19,18.44-29.87,26.27-13.01,9.37-30.28,17.99-39.41,22.3l-1.42.67Z"/>
      <path d="M269.47,228.09l-6.12-2.67c.82-1.88,1.63-3.81,2.41-5.74,9.5-23.51,16.01-50.53,19.33-80.31,3.14-28.09,3.56-59.63,1.25-93.73-36.31-4.56-68.23-14.5-88.65-22.06-18.38-6.8-33.3-13.82-38.03-16.11-4.67,2.26-19.44,9.23-38.03,16.11-20.43,7.56-52.34,17.49-88.65,22.06-2.31,34.1-1.89,65.63,1.25,93.73,3.33,29.78,9.83,56.8,19.33,80.31.61,1.52,1.25,3.05,1.9,4.55l-6.14,2.63c-.66-1.55-1.32-3.12-1.95-4.68-9.73-24.07-16.38-51.68-19.78-82.07-3.2-28.67-3.62-60.83-1.23-95.58l.33-4.85,4.82-.59c35.94-4.45,67.58-14.29,87.8-21.77C140.83,9.37,157.58,1.08,158.12.81l1.54-.81,1.53.81c.63.31,17.23,8.54,38.81,16.52,20.22,7.48,51.86,17.33,87.8,21.77l4.82.59.34,4.85c2.39,34.75,1.97,66.91-1.23,95.58-3.39,30.38-10.05,57.99-19.78,82.07-.8,1.98-1.63,3.97-2.48,5.9Z"/>
      <path class="cls-8" d="M159.65,337.65l-1.42-.67c-9.14-4.3-26.41-12.93-39.41-22.3-10.87-7.83-20.92-16.67-29.87-26.27-2.77-2.96-5.49-6.08-8.11-9.25l5.15-4.25c2.53,3.07,5.16,6.07,7.83,8.94,8.66,9.28,18.38,17.83,28.89,25.41,8.89,6.41,22.29,14.02,36.93,21,14.64-6.98,28.04-14.59,36.93-21,10.52-7.58,20.24-16.12,28.89-25.4,1.62-1.74,3.23-3.52,4.77-5.31l5.05,4.37c-1.6,1.85-3.26,3.7-4.94,5.5-8.95,9.6-19,18.44-29.87,26.27-13.01,9.37-30.28,17.99-39.41,22.3l-1.42.67Z"/>
      <path class="cls-8" d="M269.47,228.09l-6.12-2.67c.82-1.88,1.63-3.81,2.41-5.74,9.5-23.51,16.01-50.53,19.33-80.31,3.14-28.09,3.56-59.63,1.25-93.73-36.31-4.56-68.23-14.5-88.65-22.06-18.38-6.8-33.3-13.82-38.03-16.11-4.67,2.26-19.44,9.23-38.03,16.11-20.43,7.56-52.34,17.49-88.65,22.06-2.31,34.1-1.89,65.63,1.25,93.73,3.33,29.78,9.83,56.8,19.33,80.31.61,1.52,1.25,3.05,1.9,4.55l-6.14,2.63c-.66-1.55-1.32-3.12-1.95-4.68-9.73-24.07-16.38-51.68-19.78-82.07-3.2-28.67-3.62-60.83-1.23-95.58l.33-4.85,4.82-.59c35.94-4.45,67.58-14.29,87.8-21.77C140.83,9.37,157.58,1.08,158.12.81l1.54-.81,1.53.81c.63.31,17.23,8.54,38.81,16.52,20.22,7.48,51.86,17.33,87.8,21.77l4.82.59.34,4.85c2.39,34.75,1.97,66.91-1.23,95.58-3.39,30.38-10.05,57.99-19.78,82.07-.8,1.98-1.63,3.97-2.48,5.9Z"/>
      <path class="cls-7" d="M22.09,300.36L0,236.44l3.07-1.13c.38-.14,9.48-3.46,25.61-7.66,14.84-3.86,38.66-9.19,67.83-12.68,32.79-3.93,65.54-4.78,97.33-2.54,39.77,2.81,78.16,10.5,114.09,22.85l2.78.96-13.33,63.8-3.55-1.17c-.4-.13-40.77-13.27-93.89-19.78-48.82-5.98-118.72-7.44-174.49,19.62l-3.38,1.64ZM142.89,268.78c18.48,0,37.89,1.24,58.02,3.71,28.08,3.45,52.4,8.71,67.86,12.52,11.14,2.74,19.28,5.1,23.62,6.42l10.6-50.77c-79.09-26.56-155.25-25.07-205.47-19.08-28.81,3.44-52.32,8.69-66.97,12.5-10.53,2.73-18.12,5.13-22.07,6.44l17.48,50.59c24.62-11.35,53.63-18.45,86.29-21.12,9.88-.81,20.12-1.21,30.65-1.21Z"/>
    </g>
  </g>
</svg>